<svg width="44" height="36" viewBox="0 0 44 36" fill="none" xmlns="http://www.w3.org/2000/svg">
<g clip-path="url(#clip0_27_43)">
<path d="M35.284 -0.456055L39.5506 8.07728H33.1506L28.884 -0.456055H24.6173L28.884 8.07728H22.484L18.2173 -0.456055H13.9506L18.2173 8.07728H11.8173L7.55064 -0.456055H5.4173C4.8581 -0.455709 4.30446 -0.344957 3.78816 -0.130151C3.27186 0.084654 2.80304 0.399285 2.40862 0.795693C2.01419 1.1921 1.70192 1.66248 1.4897 2.17986C1.27749 2.69723 1.16951 3.25141 1.17197 3.81061L1.15063 29.4106C1.15063 30.5422 1.60016 31.6274 2.40031 32.4276C3.20047 33.2278 4.28571 33.6773 5.4173 33.6773H39.5506C40.6822 33.6773 41.7675 33.2278 42.5676 32.4276C43.3678 31.6274 43.8173 30.5422 43.8173 29.4106V-0.456055H35.284Z" fill="#ED4E4E"/>
</g>
<defs>
<clipPath id="clip0_27_43">
<rect width="44" height="36" fill="white"/>
</clipPath>
</defs>
</svg>
