<svg width="40" height="40" viewBox="0 0 40 40" fill="none" xmlns="http://www.w3.org/2000/svg">
<path d="M30.8333 5V8.33333H27.5V5H14.1667V8.33333H10.8333V5H7.5V35H10.8333V31.6667H14.1667V35H27.5V31.6667H30.8333V35H34.1667V5H30.8333ZM14.1667 28.3333H10.8333V25H14.1667V28.3333ZM14.1667 21.6667H10.8333V18.3333H14.1667V21.6667ZM14.1667 15H10.8333V11.6667H14.1667V15ZM30.8333 28.3333H27.5V25H30.8333V28.3333ZM30.8333 21.6667H27.5V18.3333H30.8333V21.6667ZM30.8333 15H27.5V11.6667H30.8333V15Z" fill="#5A6A90"/>
</svg>
