<svg width="40" height="40" viewBox="0 0 40 40" fill="none" xmlns="http://www.w3.org/2000/svg">
<path d="M34.9153 11.042H24.128L27.9585 4.75695C28.2906 4.21206 28.1181 3.50109 27.5732 3.16903C27.0283 2.83681 26.3173 3.00943 25.9852 3.55432L21.4219 11.042H18.5783L14.015 3.55432C13.6829 3.00958 12.9719 2.83704 12.427 3.16903C11.8821 3.50117 11.7096 4.21206 12.0417 4.75695L15.8722 11.042H5.08474C3.68884 11.042 2.55322 12.1776 2.55322 13.5734V34.4688C2.55322 35.8646 3.68884 37.0003 5.08474 37.0003H34.9154C36.3113 37.0003 37.4469 35.8646 37.4469 34.4688V13.5734C37.4468 12.1776 36.3112 11.042 34.9153 11.042ZM27.0232 31.4319C27.0232 32.1919 26.4071 32.808 25.6471 32.808H8.03668C7.27672 32.8079 6.66065 32.1919 6.66065 31.4319V16.6104C6.66065 15.8504 7.27672 15.2343 8.03676 15.2343H25.6471C26.407 15.2343 27.0232 15.8504 27.0232 16.6104V31.4319ZM32.1159 30.9922C30.7992 30.9922 29.728 29.9209 29.728 28.6043C29.728 27.2876 30.7992 26.2164 32.1159 26.2164C33.4325 26.2164 34.5037 27.2876 34.5037 28.6043C34.5037 29.921 33.4325 30.9922 32.1159 30.9922ZM32.1159 21.8259C30.7992 21.8259 29.728 20.7547 29.728 19.438C29.728 18.1213 30.7992 17.0501 32.1159 17.0501C33.4325 17.0501 34.5037 18.1213 34.5037 19.438C34.5037 20.7547 33.4325 21.8259 32.1159 21.8259Z" fill="#5A6A90"/>
</svg>
